<svg height="464pt" viewBox="0 -4 464 464" width="464pt" xmlns="http://www.w3.org/2000/svg"><path d="m56 400h16v32c0 13.253906 10.746094 24 24 24h304c17.671875 0 32-14.328125 32-32v-416c0-4.417969-3.582031-8-8-8h-112c-2.121094 0-4.15625.84375-5.65625 2.34375l-37.65625 37.65625h-108.6875c-13.253906 0-24 10.746094-24 24v48c-39.746094.046875-71.953125 32.253906-72 72v24h-8c-13.253906 0-24 10.746094-24 24v144c0 13.253906 10.746094 24 24 24zm96-336c0-4.417969 3.582031-8 8-8h112c2.121094 0 4.15625-.84375 5.65625-2.34375l37.65625-37.65625h100.6875v408c0 8.835938-7.164062 16-16 16s-16-7.164062-16-16v-184c0-13.253906-10.746094-24-24-24h-32v16h32c4.417969 0 8 3.582031 8 8v184c.03125 5.632812 1.570312 11.15625 4.449219 16h-276.449219c-4.417969 0-8-3.582031-8-8v-32h128c13.253906 0 24-10.746094 24-24h72v-16h-72v-16h72c2.121094 0 4.15625-.84375 5.65625-2.34375l24-24c1.5-1.5 2.34375-3.535156 2.34375-5.65625v-32h-16v28.6875l-19.3125 19.3125h-68.6875v-16h64c4.417969 0 8-3.582031 8-8v-100.6875l45.65625-45.65625c1.5-1.5 2.34375-3.535156 2.34375-5.65625v-32h8c4.417969 0 8-3.582031 8-8v-32c0-4.417969-3.582031-8-8-8h-32c-4.417969 0-8 3.582031-8 8v32c0 4.417969 3.582031 8 8 8h8v28.6875l-45.65625 45.65625c-1.5 1.5-2.34375 3.535156-2.34375 5.65625v96h-56v-16h32c4.417969 0 8-3.582031 8-8v-120h8c4.417969 0 8-3.582031 8-8v-32c0-4.417969-3.582031-8-8-8h-32c-4.417969 0-8 3.582031-8 8v32c0 4.417969 3.582031 8 8 8h8v112h-24v-32c0-13.253906-10.746094-24-24-24h-8v-24c-.054688-33.570312-23.277344-62.65625-56-70.144531zm192 40v-16h16v16zm-80 32v-16h16v16zm-184 48c0-30.929688 25.070312-56 56-56s56 25.070312 56 56v24h-16v-24c0-22.089844-17.910156-40-40-40s-40 17.910156-40 40v24h-16zm80 24h-48v-24c0-13.253906 10.746094-24 24-24s24 10.746094 24 24zm-112 24c0-4.417969 3.582031-8 8-8h160c4.417969 0 8 3.582031 8 8v144c0 4.417969-3.582031 8-8 8h-160c-4.417969 0-8-3.582031-8-8zm0 0"/><path d="m328 360h16v16h-16zm0 0"/><path d="m328 248h16v16h-16zm0 0"/><path d="m112 319.839844v16.160156c0 13.253906 10.746094 24 24 24s24-10.746094 24-24v-16.167969c15.15625-11.398437 20.210938-31.878906 12.097656-49.019531-8.117187-17.140625-27.164062-26.210938-45.585937-21.707031-15.027344 3.628906-26.601563 15.617187-29.710938 30.761719-3.105469 15.140624 2.816407 30.71875 15.199219 39.972656zm.753906-37.96875c2.1875-8.492188 8.867188-15.09375 17.382813-17.183594 1.9375-.453125 3.921875-.683594 5.910156-.6875 5.402344-.019531 10.648437 1.8125 14.863281 5.191406 6.230469 4.914063 9.609375 12.597656 9.023438 20.507813-.589844 7.910156-5.070313 15.011719-11.957032 18.949219-2.472656 1.425781-3.996093 4.058593-4 6.910156v20.441406c0 4.417969-3.582031 8-8 8-4.417968 0-8-3.582031-8-8v-20.441406c-.007812-2.851563-1.53125-5.484375-4-6.910156-9.378906-5.351563-13.984374-16.339844-11.222656-26.777344zm0 0"/><path d="m384 32h16v16h-16zm0 0"/><path d="m352 32h16v16h-16zm0 0"/><path d="m0 240h16v136h-16zm0 0"/><path d="m448 32h16v152h-16zm0 0"/><path d="m448 200h16v16h-16zm0 0"/></svg>