<svg width="682.667" height="682.667" viewBox="-64 0 512 512" xmlns="http://www.w3.org/2000/svg" xmlns:xlink="http://www.w3.org/1999/xlink" overflow="hidden"><path d="M336 192 320 192 320 128C320 57.4062 262.594 0 192 0 121.406 0 64 57.4062 64 128L64 192 48 192C21.5469 192 0 213.523 0 240L0 464C0 490.477 21.5469 512 48 512L336 512C362.453 512 384 490.477 384 464L384 240C384 213.523 362.453 192 336 192ZM106.668 128C106.668 80.9375 144.938 42.668 192 42.668 239.062 42.668 277.332 80.9375 277.332 128L277.332 192 106.668 192Z" stroke="none" stroke-width="1" stroke-linecap="butt" fill="#000000" fill-opacity="1"/></svg>